<?xml version="1.0" encoding="UTF-8" standalone="no"?>
<!-- Created with Inkscape (http://www.inkscape.org/) -->

<svg
   xmlns:dc="http://purl.org/dc/elements/1.1/"
   xmlns:cc="http://creativecommons.org/ns#"
   xmlns:rdf="http://www.w3.org/1999/02/22-rdf-syntax-ns#"
   xmlns:svg="http://www.w3.org/2000/svg"
   xmlns="http://www.w3.org/2000/svg"
   xmlns:sodipodi="http://sodipodi.sourceforge.net/DTD/sodipodi-0.dtd"
   xmlns:inkscape="http://www.inkscape.org/namespaces/inkscape"
   width="210mm"
   height="297mm"
   viewBox="0 0 744.09448819 1052.3622047"
   id="svg2"
   version="1.1"
   inkscape:version="0.91 r13725"
   sodipodi:docname="fluffy-elephant-friend_nishinomiya.svg">
  <defs
     id="defs4">
    <inkscape:path-effect
       effect="spiro"
       id="path-effect3412"
       is_visible="true" />
  </defs>
  <sodipodi:namedview
     id="base"
     pagecolor="#ffffff"
     bordercolor="#666666"
     borderopacity="1.0"
     inkscape:pageopacity="0.0"
     inkscape:pageshadow="2"
     inkscape:zoom="5.6568542"
     inkscape:cx="403.81281"
     inkscape:cy="474.92653"
     inkscape:document-units="px"
     inkscape:current-layer="layer1"
     showgrid="false"
     inkscape:window-width="1920"
     inkscape:window-height="1017"
     inkscape:window-x="-8"
     inkscape:window-y="-8"
     inkscape:window-maximized="1" />
  <metadata
     id="metadata7">
    <rdf:RDF>
      <cc:Work
         rdf:about="">
        <dc:format>image/svg+xml</dc:format>
        <dc:type
           rdf:resource="http://purl.org/dc/dcmitype/StillImage" />
        <dc:title />
      </cc:Work>
    </rdf:RDF>
  </metadata>
  <g
     inkscape:label="レイヤー 1"
     inkscape:groupmode="layer"
     id="layer1">
    <g
       id="g4744">
      <rect
         y="510.71841"
         x="400.3992"
         height="56.922096"
         width="27.930717"
         id="rect4830"
         style="fill:#ffffff;fill-opacity:1;stroke:none;stroke-width:16;stroke-linecap:round;stroke-linejoin:round;stroke-miterlimit:4;stroke-dasharray:none" />
      <rect
         y="530.87097"
         x="376.35757"
         height="17.324116"
         width="16.086679"
         id="rect4288"
         style="fill:#ffffff;fill-opacity:1;stroke:none;stroke-width:16;stroke-linecap:round;stroke-linejoin:round;stroke-miterlimit:4;stroke-dasharray:none" />
      <path
         inkscape:export-ydpi="299.51001"
         inkscape:export-xdpi="299.51001"
         inkscape:connector-curvature="0"
         id="path4239"
         d="m 388.94481,601.74197 c -0.38438,-0.90729 -0.38119,-4.90931 0.006,-7.78867 1.23988,-9.21552 1.36726,-11.36803 0.96229,-16.26116 -0.21116,-2.5514 -0.19626,-2.68803 0.46365,-4.25 0.87785,-2.0778 1.04384,-2.98126 0.59947,-3.26271 -0.18972,-0.12016 -1.03392,-0.2202 -1.87601,-0.22231 -0.84209,-0.002 -2.00936,-0.17257 -2.59393,-0.37882 -0.58458,-0.20625 -1.60505,-0.375 -2.26772,-0.375 -1.35623,0 -7.59382,0.87612 -9.07267,1.27433 -0.8545,0.2301 -1.03341,0.19652 -1.55276,-0.29139 -0.93178,-0.87536 -2.18627,-0.55524 -5.04808,1.28816 -1.33858,0.86223 -2.95016,2.02583 -3.58129,2.58579 -0.88844,0.78824 -1.7351,1.20994 -3.75,1.86776 l -2.60248,0.84965 -4.99222,-0.15419 c -5.71331,-0.17647 -5.69764,-0.17104 -7.07212,-2.4468 -1.39909,-2.31649 -1.84833,-3.84403 -2.05084,-6.97331 -0.16445,-2.54108 -0.29197,-3.11456 -1.09794,-4.9375 -2.10017,-4.75016 -2.63566,-6.06964 -3.49313,-8.60723 -1.13645,-3.36324 -1.4145,-5.08382 -1.41687,-8.76777 -10e-4,-2.31 0.0707,-2.9375 0.33789,-2.9375 0.18687,0 1.00249,-0.33608 1.8125,-0.74684 1.51917,-0.77038 3.01974,-0.96054 4.1597,-0.52713 1.09878,0.41776 1.56544,3.10989 1.93257,11.14897 0.14219,3.11353 0.38221,5.70781 0.58981,6.375 0.52667,1.69261 2.95322,6.01799 3.67461,6.55008 0.54354,0.40091 0.81097,0.43282 1.875,0.22373 0.68257,-0.13412 1.87299,-0.31308 2.64538,-0.39768 1.07606,-0.11787 1.77321,-0.39895 2.98239,-1.20248 1.46088,-0.97079 1.72433,-1.29924 3.54826,-4.42365 1.08362,-1.85625 2.24005,-3.93753 2.56985,-4.62506 0.93169,-1.94229 2.38306,-7.50823 2.60962,-10.00774 0.13084,-1.44349 0.56815,-3.42714 1.21251,-5.5 0.55433,-1.78321 1.13536,-3.87934 1.29118,-4.65806 0.34528,-1.72554 4.13072,-9.41277 6.20637,-12.60348 2.00107,-3.07607 4.56173,-5.05084 10.04289,-7.74503 3.66635,-1.80215 5.0404,-2.23818 8.32494,-2.64183 2.38182,-0.29271 2.46871,-0.28473 5.23982,0.48114 1.5498,0.42834 4.1116,1.11508 5.69289,1.52611 6.41257,1.66684 11.68908,3.94082 13.31171,5.73688 1.03983,1.15096 1.33369,2.20873 1.26048,4.53707 -0.0281,0.89375 0.12671,3.23704 0.34402,5.20732 0.49398,4.47853 0.34641,8.50585 -0.39399,10.75245 -0.28726,0.87163 -0.52228,1.89561 -0.52228,2.27551 0,1.04654 -2.39275,8.40309 -3.37929,10.38972 -1.87159,3.76884 -7.71151,9.6573 -10.30306,10.38869 -1.02529,0.28936 -4.20789,2.4294 -3.96867,2.66862 0.25715,0.25715 2.89837,-0.80333 5.18642,-2.08242 2.40337,-1.34356 5.2238,-3.37303 7.05519,-5.07666 1.69237,-1.57431 4.96563,-5.84591 5.66916,-7.39823 1.02748,-2.26715 2.9009,-8.22869 3.33891,-10.625 0.21363,-1.16875 0.56008,-2.74015 0.76988,-3.49199 0.48647,-1.74331 0.48974,-5.28383 0.008,-9.14252 -0.20515,-1.64477 -0.37637,-4.11549 -0.38049,-5.49049 -0.009,-2.97517 -0.39159,-4.02503 -1.99371,-5.46964 -1.59833,-1.44117 -5.9355,-3.26197 -11.86224,-4.97993 l -2.98445,-0.86508 1.98445,-0.17514 c 1.1279,-0.0995 3.10379,-0.0517 4.57773,0.11076 2.12003,0.23372 3.16937,0.21652 5.75,-0.0942 7.23469,-0.87124 9.30481,-0.98076 15.49055,-0.81948 7.08744,0.18478 9.83126,0.45435 11.84742,1.16399 0.78719,0.27707 1.88855,0.50377 2.44746,0.50377 0.96482,0 2.79568,0.72315 3.10726,1.22731 0.0797,0.12895 0.73421,0.42754 1.45447,0.66354 1.71369,0.5615 4.46331,1.94283 6.18456,3.10694 0.75625,0.51147 1.76875,1.12756 2.25,1.3691 0.48125,0.24154 1.38125,0.85913 2,1.37242 0.61875,0.51329 1.63125,1.15934 2.25,1.43567 0.61875,0.27634 1.30672,0.71563 1.52883,0.97622 0.22211,0.26059 1.4779,2.3863 2.79065,4.7238 1.31275,2.3375 2.89871,5.13993 3.52436,6.22762 0.62566,1.08769 1.21254,2.47769 1.3042,3.08888 0.15311,1.02106 0.0346,1.37802 -1.45987,4.39738 l -1.62652,3.28612 -0.0197,3.5 c -0.011,1.94889 -0.18878,4.44174 -0.40122,5.625 -0.20983,1.16875 -0.38359,2.7053 -0.38612,3.41456 -0.007,2.00537 0.73178,7.21206 1.39505,9.8297 0.70056,2.76481 0.7376,3.93839 0.23686,7.50574 -0.8417,5.99639 -1.1073,12.11397 -0.61809,14.23673 0.14092,0.61145 0.8085,2.2427 1.48353,3.625 2.4414,4.99943 2.62526,7.95337 0.54054,8.68444 -0.55763,0.19555 -2.24126,0.33063 -4.2925,0.34439 -4.00432,0.0269 -13.75566,0.53858 -14.6789,0.7703 -0.6349,0.15935 -0.64472,0.14237 -0.46947,-0.81155 0.0985,-0.53587 0.27506,-2.21181 0.39246,-3.72431 0.1174,-1.5125 0.29236,-3.33011 0.38879,-4.03912 0.0977,-0.71811 0.0348,-2.43451 -0.14199,-3.875 -0.19051,-1.55249 -0.30238,-5.05177 -0.27992,-8.75634 0.031,-5.12314 -0.0248,-6.23265 -0.32902,-6.53688 -0.56341,-0.56341 -5.96756,-0.78492 -11.13053,-0.45623 -10.42928,0.66395 -19.04391,0.58052 -23.32064,-0.22587 -1.09784,-0.207 -1.36011,-0.14824 -3.25,0.72817 -2.24466,1.04093 -3.51293,1.98453 -4.03699,3.00355 -0.71807,1.39627 -0.9519,4.30879 -1.11066,13.83429 -0.1055,6.32979 -0.2538,9.76909 -0.42878,9.94408 -0.46301,0.46301 -5.52077,0.97443 -11.22935,1.13546 -6.48895,0.18304 -8.5532,0.40742 -9.90608,1.07677 l -0.99941,0.49447 -0.28117,-0.66368 -10e-6,0 z m -2.81333,-57.26264 c 1.94217,-0.8992 2.875,-2.37623 2.875,-4.55227 0,-2.18169 -1.44402,-4.15696 -3.44527,-4.71276 -1.15887,-0.32185 -1.4506,-0.32185 -2.60947,0 -2.62101,0.72792 -4.18381,4.00172 -3.17936,6.66022 0.6068,1.60603 2.74341,3.0678 4.4841,3.0678 0.48125,0 1.325,-0.20835 1.875,-0.46299 z"
         style="fill:#98b0cf;fill-opacity:1;stroke:none;stroke-width:16;stroke-linecap:round;stroke-linejoin:round;stroke-miterlimit:4;stroke-dasharray:none" />
      <path
         inkscape:export-ydpi="299.51001"
         inkscape:export-xdpi="299.51001"
         inkscape:connector-curvature="0"
         d="m 399.54644,508.72723 c 2.8705,0.97902 5.80707,1.72815 8.73626,2.5049 3.7814,1.09409 7.54873,2.33186 11.09556,4.05432 1.11993,0.62118 2.15288,1.3904 2.81437,2.50832 0.3268,0.55229 0.38543,0.80007 0.59716,1.39032 0.31181,1.44044 0.20617,2.92863 0.16543,4.39112 -0.0582,1.39188 0.18667,2.76028 0.37554,4.13213 0.17938,1.17732 0.24733,2.36671 0.2882,3.55563 0.0166,1.14852 0.033,2.29571 -0.0487,3.44194 -0.007,0.92181 -0.2139,1.79131 -0.50848,2.65774 -0.27448,0.74954 -0.48505,1.51782 -0.59895,2.30773 -0.0442,0.57993 -0.11115,1.15715 -0.22808,1.72725 -0.14668,0.45816 -0.22961,0.93192 -0.3519,1.39625 -0.17316,0.52953 -0.36502,1.05244 -0.51772,1.5886 -0.2769,0.8061 -0.56373,1.60907 -0.84038,2.41618 -0.27053,0.84068 -0.48371,1.69723 -0.80718,2.52012 -0.29658,0.79285 -0.67511,1.55015 -1.05129,2.3072 -0.61201,1.11003 -1.48201,2.04085 -2.29699,3.00113 -0.93762,1.32589 -2.01916,2.51182 -3.20883,3.61265 -0.83381,0.74711 -1.75268,1.38815 -2.63293,2.07719 -1.74714,1.50466 -3.81827,2.52119 -5.81133,3.6609 -0.79383,0.30603 -1.5692,0.68101 -2.39922,0.88107 -0.33025,0.13188 -0.67513,0.20964 -1.02421,0.26984 0,0 2.95527,-2.24042 2.95527,-2.24042 l 0,0 c 0.33869,-0.082 0.67026,-0.18585 1.00442,-0.28432 0.79065,-0.24366 1.56063,-0.56444 2.30908,-0.91437 -5.40096,3.17356 -1.50993,0.98896 -0.43182,-0.0107 0.87984,-0.70807 1.80809,-1.35128 2.68004,-2.06989 1.20057,-1.07339 2.3232,-2.21117 3.21443,-3.56288 0.79257,-0.94752 1.64758,-1.85103 2.29895,-2.9062 0.36983,-0.74899 0.75478,-1.49483 1.04448,-2.2794 0.36421,-0.80666 0.5826,-1.66357 0.84213,-2.50711 0.26635,-0.79556 0.50643,-1.59782 0.8157,-2.37786 0.13481,-0.53784 0.30136,-1.06991 0.50968,-1.58385 0.12404,-0.46534 0.2044,-0.93853 0.35561,-1.39669 0.17689,-0.54298 0.2055,-1.12459 0.25457,-1.69035 0.1043,-0.81719 0.31145,-1.61237 0.59628,-2.38586 0.28874,-0.84079 0.53891,-1.67865 0.55295,-2.57725 0.098,-1.13388 0.10183,-2.26808 0.0636,-3.40575 -0.0253,-1.18179 -0.0786,-2.36368 -0.24003,-3.53601 -0.19057,-1.38957 -0.45565,-2.77353 -0.41015,-4.18372 0.055,-1.42299 0.16033,-2.86686 -0.0988,-4.2758 -0.18365,-0.55334 -0.23543,-0.79961 -0.53324,-1.31572 -0.61414,-1.06431 -1.61285,-1.78428 -2.65286,-2.39543 -3.46495,-1.79801 -7.17539,-3.08766 -10.95093,-4.06186 -1.24267,-0.30726 -2.49001,-0.59618 -3.72808,-0.92145 -1.74491,-0.45843 -3.45792,-1.03417 -5.21392,-1.45069 0,0 3.01632,-2.069 3.01632,-2.069 z"
         id="path4231"
         style="fill:#7eb0d1;fill-opacity:0.50970876;stroke-width:16;stroke-linecap:round;stroke-linejoin:round;stroke-miterlimit:4;stroke-dasharray:none" />
      <path
         inkscape:export-ydpi="299.51001"
         inkscape:export-xdpi="299.51001"
         inkscape:connector-curvature="0"
         id="path4235"
         d="m 381.47459,543.49033 c -1.48955,-0.59807 -2.4061,-2.48707 -1.98417,-4.08932 0.56632,-2.15052 2.70097,-3.22322 4.64237,-2.33286 2.58452,1.18529 2.56656,5.10013 -0.0291,6.34405 -0.6627,0.31759 -1.9383,0.3555 -2.62908,0.0781 z"
         style="fill:#483537;fill-opacity:1;stroke:none;stroke-width:16;stroke-linecap:round;stroke-linejoin:round;stroke-miterlimit:4;stroke-dasharray:none" />
    </g>
    <g
       id="g4161">
      <text
         inkscape:export-ydpi="299.51001"
         inkscape:export-xdpi="299.51001"
         sodipodi:linespacing="125%"
         id="text3378-7"
         y="594.47064"
         x="415.09518"
         style="font-style:normal;font-weight:normal;font-size:40px;line-height:125%;font-family:sans-serif;letter-spacing:0px;word-spacing:0px;fill:#ffffff;fill-opacity:0.50196081;stroke:none;stroke-width:1px;stroke-linecap:butt;stroke-linejoin:miter;stroke-opacity:1;"
         xml:space="preserve"><tspan
           style="font-style:normal;font-variant:normal;font-weight:normal;font-stretch:normal;font-size:42.5px;font-family:'JNR-SB-Font OTF';-inkscape-font-specification:'JNR-SB-Font OTF';fill:#ffffff;fill-opacity:0.50196081;"
           y="594.47064"
           x="415.09518"
           id="tspan3380-5"
           sodipodi:role="line">西</tspan></text>
      <text
         inkscape:export-ydpi="299.51001"
         inkscape:export-xdpi="299.51001"
         sodipodi:linespacing="125%"
         id="text3378-7-6"
         y="594.91418"
         x="455.07822"
         style="font-style:normal;font-weight:normal;font-size:40px;line-height:125%;font-family:sans-serif;letter-spacing:0px;word-spacing:0px;fill:#ffffff;fill-opacity:0.50196081;stroke:none;stroke-width:1px;stroke-linecap:butt;stroke-linejoin:miter;stroke-opacity:1;"
         xml:space="preserve"><tspan
           style="font-style:normal;font-variant:normal;font-weight:normal;font-stretch:normal;font-size:42.5px;font-family:'JNR-SB-Font OTF';-inkscape-font-specification:'JNR-SB-Font OTF';fill:#ffffff;fill-opacity:0.50196081;"
           y="594.91418"
           x="455.07822"
           id="tspan3380-5-3"
           sodipodi:role="line">宮</tspan></text>
      <text
         inkscape:export-ydpi="299.51001"
         inkscape:export-xdpi="299.51001"
         sodipodi:linespacing="125%"
         id="text3378-7-9"
         y="594.20587"
         x="416.30389"
         style="font-style:normal;font-weight:normal;font-size:40px;line-height:125%;font-family:sans-serif;letter-spacing:0px;word-spacing:0px;fill:#189e80;fill-opacity:1;stroke:none;stroke-width:1px;stroke-linecap:butt;stroke-linejoin:miter;stroke-opacity:1"
         xml:space="preserve"><tspan
           style="font-style:normal;font-variant:normal;font-weight:normal;font-stretch:normal;font-size:40px;font-family:'JNR-SB-Font OTF';-inkscape-font-specification:'JNR-SB-Font OTF';fill:#189e80;fill-opacity:1"
           y="594.20587"
           x="416.30389"
           id="tspan3380-5-1"
           sodipodi:role="line">西宮</tspan></text>
    </g>
  </g>
</svg>
