<?xml version="1.0" encoding="UTF-8" standalone="no"?>
<!-- Created with Inkscape (http://www.inkscape.org/) -->

<svg
   xmlns:dc="http://purl.org/dc/elements/1.1/"
   xmlns:cc="http://creativecommons.org/ns#"
   xmlns:rdf="http://www.w3.org/1999/02/22-rdf-syntax-ns#"
   xmlns:svg="http://www.w3.org/2000/svg"
   xmlns="http://www.w3.org/2000/svg"
   xmlns:sodipodi="http://sodipodi.sourceforge.net/DTD/sodipodi-0.dtd"
   xmlns:inkscape="http://www.inkscape.org/namespaces/inkscape"
   width="210mm"
   height="297mm"
   viewBox="0 0 744.09448819 1052.3622047"
   id="svg2"
   version="1.1"
   inkscape:version="0.91 r13725"
   sodipodi:docname="logo_ni.svg">
  <defs
     id="defs4">
    <inkscape:path-effect
       effect="spiro"
       id="path-effect3369"
       is_visible="true" />
    <inkscape:path-effect
       effect="spiro"
       id="path-effect3365"
       is_visible="true" />
    <inkscape:path-effect
       effect="spiro"
       id="path-effect3361"
       is_visible="true" />
    <inkscape:path-effect
       effect="spiro"
       id="path-effect3369-1"
       is_visible="true" />
    <inkscape:path-effect
       effect="spiro"
       id="path-effect3365-3"
       is_visible="true" />
    <inkscape:path-effect
       effect="spiro"
       id="path-effect3361-5"
       is_visible="true" />
    <inkscape:path-effect
       effect="spiro"
       id="path-effect3361-5-6"
       is_visible="true" />
    <inkscape:path-effect
       effect="spiro"
       id="path-effect3365-3-6"
       is_visible="true" />
    <inkscape:path-effect
       effect="spiro"
       id="path-effect3369-1-3"
       is_visible="true" />
  </defs>
  <sodipodi:namedview
     id="base"
     pagecolor="#ffffff"
     bordercolor="#666666"
     borderopacity="1.0"
     inkscape:pageopacity="0.0"
     inkscape:pageshadow="2"
     inkscape:zoom="0.35"
     inkscape:cx="-99.285714"
     inkscape:cy="520"
     inkscape:document-units="px"
     inkscape:current-layer="layer1"
     showgrid="false"
     inkscape:window-width="1920"
     inkscape:window-height="1017"
     inkscape:window-x="-8"
     inkscape:window-y="-8"
     inkscape:window-maximized="1" />
  <metadata
     id="metadata7">
    <rdf:RDF>
      <cc:Work
         rdf:about="">
        <dc:format>image/svg+xml</dc:format>
        <dc:type
           rdf:resource="http://purl.org/dc/dcmitype/StillImage" />
        <dc:title />
      </cc:Work>
    </rdf:RDF>
  </metadata>
  <g
     inkscape:label="レイヤー 1"
     inkscape:groupmode="layer"
     id="layer1"
     style="display:inline">
    <path
       style="fill:#189e80;fill-opacity:1"
       d="M 372.85742 63.791016 A 467.14285 467.14285 0 0 0 -94.285156 530.93359 A 467.14285 467.14285 0 0 0 372.85742 998.07617 A 467.14285 467.14285 0 0 0 840 530.93359 A 467.14285 467.14285 0 0 0 372.85742 63.791016 z M 132.87109 346.49805 L 334.29883 349.64062 L 260.01367 758.21094 L 137.15625 752.49805 L 111.44336 741.06836 L 91.443359 718.21094 C 87.598584 711.56449 83.787893 704.8977 80.013672 698.21094 C 75.193924 689.67182 70.432423 681.10152 65.728516 672.49805 C 69.582355 654.41218 73.391104 636.31548 77.15625 618.21094 C 95.33508 530.79882 112.48064 443.17328 128.58594 355.35547 L 132.87109 346.49805 z M 417.15625 346.7832 L 620.01367 346.7832 L 637.15625 355.35547 L 657.15625 372.49805 L 668.58594 386.7832 L 677.15625 403.92578 L 677.15625 423.92578 L 654.29883 569.64062 L 642.87109 546.7832 L 622.87109 521.06836 L 582.87109 503.92578 L 448.58594 503.92578 L 382.87109 498.21094 L 417.15625 346.7832 z M 382.87109 518.21094 L 394.29883 543.92578 L 408.58594 563.92578 L 437.15625 583.92578 L 462.87109 589.64062 L 645.72852 589.64062 L 617.15625 746.7832 L 425.72852 749.64062 L 380.01367 732.49805 L 362.87109 701.06836 L 357.15625 661.06836 C 360.99479 640.12127 364.80541 619.16858 368.58594 598.21094 C 373.39479 571.55269 378.15615 544.88596 382.87109 518.21094 z "
       id="path4151"
       inkscape:export-xdpi="19.27"
       inkscape:export-ydpi="19.27" />
    <path
       style="fill:#800000;fill-opacity:0.50196081;fill-rule:evenodd;stroke:#ff0000;stroke-width:16;stroke-linecap:butt;stroke-linejoin:miter;stroke-miterlimit:4;stroke-dasharray:none;stroke-opacity:1"
       d="m 130.22131,343.52899 201.4286,3.14284 -74.2857,408.57144 -122.8572,-5.71428 -25.7142,-11.42858 -19.999994,-22.85714 c -3.844775,-6.64645 -7.654379,-13.31324 -11.4286,-20 -4.819748,-8.53912 -9.581793,-17.11081 -14.2857,-25.71428 3.853839,-18.08587 7.663354,-36.18118 11.4285,-54.28572 18.178829,-87.41212 35.323294,-175.03934 51.428594,-262.85715 l 4.2857,-8.85713 z"
       id="path3359-3"
       inkscape:original-d="m 130.22131,343.52899 201.4286,3.14284 -74.2857,408.57144 -122.8572,-5.71428 -25.7142,-11.42858 -19.999994,-22.85714 -11.4286,-20 -14.2857,-25.71428 11.4285,-54.28572 51.428594,-262.85715 z"
       inkscape:connector-curvature="0"
       sodipodi:nodetypes="ccccccccccc"
       inkscape:path-effect="#path-effect3361-5-6"
       inkscape:export-xdpi="19.27"
       inkscape:export-ydpi="19.27" />
    <path
       style="fill:#008000;fill-opacity:0.50196081;fill-rule:evenodd;stroke:#008000;stroke-width:16;stroke-linecap:butt;stroke-linejoin:miter;stroke-miterlimit:4;stroke-dasharray:none;stroke-opacity:1"
       d="m 414.50701,343.81469 202.8572,0 17.1428,8.57143 20,17.14287 11.4286,14.28571 8.5714,17.14285 0,20.00001 -22.8571,145.71428 -11.4286,-22.85714 -20,-25.71429 -40,-17.14285 -134.2857,0 -65.7143,-5.71429 34.2857,-151.42858 z"
       id="path3363-5"
       inkscape:original-d="m 414.50701,343.81469 202.8572,0 17.1428,8.57143 20,17.14287 11.4286,14.28571 8.5714,17.14285 0,20.00001 -22.8571,145.71428 -11.4286,-22.85714 -20,-25.71429 -40,-17.14285 -134.2857,0 -65.7143,-5.71429 z"
       inkscape:connector-curvature="0"
       inkscape:path-effect="#path-effect3365-3-6"
       inkscape:export-xdpi="19.27"
       inkscape:export-ydpi="19.27" />
    <path
       style="fill:#008000;fill-opacity:0.50196081;fill-rule:evenodd;stroke:#008000;stroke-width:16;stroke-linecap:butt;stroke-linejoin:miter;stroke-miterlimit:4;stroke-dasharray:none;stroke-opacity:1"
       d="m 380.22131,515.24327 11.4286,25.71429 14.2857,20 28.5714,20 25.7143,5.71428 182.8572,0 -28.5715,157.14286 -191.4285,2.85714 -45.7143,-17.14285 -17.1429,-31.42858 -5.7143,-40 c 3.83854,-20.94709 7.64807,-41.8995 11.4286,-62.85714 4.80885,-26.65825 9.57076,-53.32498 14.2857,-80 z"
       id="path3367-7"
       inkscape:original-d="m 380.22131,515.24327 11.4286,25.71429 14.2857,20 28.5714,20 25.7143,5.71428 182.8572,0 -28.5715,157.14286 -191.4285,2.85714 -45.7143,-17.14285 -17.1429,-31.42858 -5.7143,-40 11.4286,-62.85714 z"
       inkscape:connector-curvature="0"
       inkscape:path-effect="#path-effect3369-1-3"
       inkscape:export-xdpi="19.27"
       inkscape:export-ydpi="19.27" />
  </g>
</svg>
